<svg width="325" height="325" viewBox="0 0 325 325" fill="none" xmlns="http://www.w3.org/2000/svg">
<path d="M137.065 170.314C135.884 170.314 134.754 169.844 133.923 169.013L119.222 154.312C117.489 152.579 117.489 149.76 119.222 148.027L122.414 144.834L120.802 137.401C120.485 135.922 120.935 134.386 122.002 133.32L128.895 126.426C130.628 124.693 133.447 124.693 135.18 126.426L161.802 153.048C162.633 153.88 163.103 155.01 163.103 156.19C163.103 157.371 162.633 158.501 161.802 159.333L154.908 166.226C153.842 167.292 152.299 167.75 150.827 167.426L143.393 165.813L140.201 169.006C139.375 169.844 138.245 170.314 137.065 170.314ZM128.648 151.169L137.065 159.586L138.829 157.822C139.896 156.755 141.438 156.298 142.911 156.622L150.344 158.234L152.382 156.197L132.044 135.859L130.006 137.896L131.619 145.33C131.936 146.809 131.485 148.345 130.419 149.411L128.648 151.169Z" fill="#9381FF"/>
<path d="M82.7289 206.737C82.5639 206.737 82.4052 206.73 82.2401 206.711C80.9008 206.565 79.7011 205.816 78.9774 204.674C71.4237 192.759 73.1884 176.858 83.1859 166.867L96.9921 153.404C97.0111 153.385 97.0365 153.359 97.0556 153.34L108.012 143.083L111.287 139.947C113.033 138.277 115.794 138.303 117.501 140.01L148.814 171.323C149.659 172.168 150.128 173.316 150.116 174.51C150.103 175.703 149.608 176.846 148.745 177.671L120.713 204.522C118.968 206.197 116.206 206.166 114.499 204.458L100.674 190.633L85.8773 205.429C85.0331 206.273 83.8969 206.737 82.7289 206.737ZM100.667 179.912C101.804 179.912 102.94 180.343 103.809 181.213L117.704 195.108L139.318 174.402L114.289 149.373L114.137 149.519C114.124 149.532 114.112 149.544 114.099 149.551L103.162 159.796L89.432 173.189C83.7826 178.839 81.8593 187.211 84.0873 194.657L97.5316 181.213C98.3886 180.35 99.5312 179.912 100.667 179.912Z" fill="#9381FF"/>
<path d="M205.734 292.068C199.043 292.068 192.74 288.818 188.862 283.378L137.192 213.129C135.738 211.155 136.163 208.368 138.138 206.915C140.112 205.461 142.898 205.886 144.352 207.86L196.047 278.135C196.06 278.154 196.079 278.173 196.092 278.199C198.339 281.36 201.849 283.175 205.734 283.175C208.882 283.175 211.84 281.944 214.075 279.716C216.309 277.488 217.534 274.517 217.534 271.362C217.534 268.208 216.303 265.243 214.075 263.009L146.65 195.59L137.427 204.813C135.694 206.546 132.875 206.546 131.142 204.813C129.41 203.081 129.41 200.262 131.142 198.529L143.508 186.164C145.241 184.431 148.059 184.431 149.792 186.164L220.352 256.725C224.263 260.635 226.414 265.833 226.414 271.362C226.414 276.891 224.263 282.09 220.352 286C216.449 289.91 211.256 292.068 205.734 292.068Z" fill="#9381FF"/>
<path d="M125.023 292.068C119.869 292.068 114.892 290.018 111.23 286.355C103.632 278.757 103.632 266.392 111.23 258.794L140.435 229.588C142.168 227.855 144.987 227.855 146.72 229.588C148.453 231.321 148.453 234.14 146.72 235.873L117.514 265.078C113.382 269.217 113.382 275.945 117.514 280.078C119.679 282.242 122.541 283.34 125.595 283.175C128.641 283.01 131.377 281.607 133.288 279.221L160.684 245.077L147.805 227.563C146.351 225.589 146.777 222.803 148.751 221.349C150.731 219.896 153.512 220.321 154.965 222.295L169.87 242.557C171.063 244.175 171.018 246.397 169.755 247.971L140.226 284.781C136.766 289.098 131.612 291.745 126.09 292.049C125.728 292.056 125.372 292.068 125.023 292.068Z" fill="#9381FF"/>
<path d="M182.419 229.519C181.283 229.519 180.146 229.087 179.277 228.217L163.687 212.627C161.954 210.895 161.954 208.076 163.687 206.343L183.035 186.989L178.134 168.702C177.722 167.166 178.16 165.534 179.283 164.411L202.661 141.032C203.785 139.909 205.423 139.471 206.953 139.883L223.641 144.358C225.177 144.771 226.37 145.971 226.783 147.501C227.195 149.037 226.757 150.668 225.634 151.792L208.597 168.829L211.351 179.118L221.641 181.873L238.678 164.836C239.802 163.712 241.439 163.274 242.969 163.687C244.505 164.1 245.699 165.293 246.111 166.829L250.586 183.517C250.999 185.053 250.561 186.685 249.437 187.808L226.059 211.187C224.935 212.31 223.298 212.748 221.768 212.335L202.484 207.168L192.581 219.515C191.045 221.425 188.246 221.736 186.335 220.2C184.418 218.664 184.114 215.865 185.65 213.954L197.368 199.348C198.472 197.971 200.281 197.38 201.982 197.837L221.59 203.093L241.338 183.346L239.522 176.566L226.116 189.973C224.993 191.096 223.361 191.534 221.825 191.122L206.578 187.04C205.042 186.627 203.849 185.428 203.436 183.898L199.354 168.651C198.942 167.115 199.38 165.483 200.503 164.36L213.91 150.954L207.13 149.138L187.383 168.886L192.283 187.173C192.696 188.709 192.258 190.341 191.134 191.464L173.113 209.492L185.561 221.939C187.294 223.672 187.294 226.491 185.561 228.224C184.691 229.081 183.555 229.519 182.419 229.519Z" fill="#9381FF"/>
<path d="M311.987 158.323H263.472C262.292 158.323 261.155 157.854 260.317 157.009L162.5 58.5254L64.6826 157.009C63.8511 157.847 62.7148 158.323 61.5278 158.323H13.0127C11.2163 158.323 9.59766 157.244 8.91211 155.587C8.22021 153.931 8.59473 152.02 9.86426 150.75L131.968 27.79C132.799 26.9521 133.936 26.4761 135.123 26.4761H189.877C191.058 26.4761 192.194 26.9458 193.032 27.79L209.834 44.7129C211.561 46.4522 211.555 49.2642 209.815 50.9971C208.076 52.7236 205.258 52.7173 203.531 50.978L188.03 35.3691H136.97L23.6895 149.437H59.6807L159.345 49.0864C160.177 48.2485 161.313 47.7725 162.5 47.7725C163.687 47.7725 164.817 48.2422 165.655 49.0864L265.319 149.437H301.311L228.319 75.937C226.592 74.1978 226.599 71.3794 228.338 69.6528C230.077 67.9263 232.896 67.9326 234.622 69.6719L315.136 150.744C316.399 152.02 316.773 153.924 316.088 155.581C315.402 157.244 313.784 158.323 311.987 158.323Z" fill="#434343"/>
<path d="M220.537 66.3139C219.407 66.3139 218.27 65.8823 217.407 65.0254C215.668 63.2988 215.655 60.4804 217.382 58.7412L217.471 58.6523C219.197 56.9131 222.016 56.9004 223.755 58.6269C225.494 60.3535 225.507 63.1719 223.78 64.9111L223.691 65C222.822 65.876 221.679 66.3139 220.537 66.3139Z" fill="#434343"/>
<path d="M60.0996 238.78C58.9316 238.78 57.7891 238.304 56.9575 237.479C56.7544 237.275 56.5703 237.047 56.4053 236.806C56.2466 236.564 56.1069 236.304 55.999 236.038C55.8848 235.765 55.8022 235.485 55.7451 235.206C55.688 234.92 55.6562 234.622 55.6562 234.336C55.6562 234.044 55.688 233.752 55.7451 233.467C55.8022 233.188 55.8848 232.902 55.999 232.635C56.1069 232.369 56.2466 232.108 56.4053 231.867C56.5703 231.626 56.7544 231.397 56.9575 231.194C57.167 230.991 57.3892 230.807 57.6367 230.642C57.8779 230.483 58.1318 230.344 58.4048 230.236C58.6714 230.122 58.9507 230.039 59.2363 229.982C59.8076 229.868 60.398 229.861 60.9692 229.982C61.2549 230.039 61.5342 230.122 61.8008 230.236C62.0674 230.344 62.3276 230.483 62.5688 230.642C62.8101 230.807 63.0386 230.991 63.2417 231.194C63.4512 231.397 63.6353 231.626 63.7939 231.867C63.959 232.108 64.0923 232.369 64.2065 232.635C64.3145 232.902 64.4033 233.188 64.4605 233.467C64.5176 233.752 64.543 234.044 64.543 234.336C64.543 234.622 64.5176 234.92 64.4605 235.206C64.4033 235.485 64.3145 235.765 64.2065 236.038C64.0923 236.304 63.959 236.564 63.7939 236.806C63.6353 237.047 63.4512 237.275 63.2417 237.479C63.0386 237.682 62.8101 237.866 62.5688 238.031C62.3276 238.189 62.0674 238.329 61.8008 238.437C61.5342 238.551 61.2549 238.634 60.9692 238.691C60.6836 238.748 60.3916 238.78 60.0996 238.78Z" fill="#434343"/>
<path d="M264.9 316.431H60.0996C57.6431 316.431 55.6562 314.444 55.6562 311.987V253.894C55.6562 251.437 57.6431 249.45 60.0996 249.45C62.5562 249.45 64.543 251.437 64.543 253.894V307.544H260.451V192.093C260.451 189.636 262.438 187.649 264.894 187.649C267.351 187.649 269.337 189.636 269.337 192.093V311.987C269.344 314.444 267.351 316.431 264.9 316.431Z" fill="#434343"/>
<path d="M60.0996 219.223C57.6431 219.223 55.6562 217.236 55.6562 214.779V153.88C55.6562 151.576 57.4082 149.678 59.6553 149.456L159.345 49.0864C160.177 48.2485 161.313 47.7725 162.5 47.7725C163.687 47.7725 164.817 48.2422 165.655 49.0864L265.345 149.456C267.592 149.678 269.344 151.569 269.344 153.88C269.344 156.336 267.357 158.323 264.9 158.323H263.472C262.292 158.323 261.155 157.854 260.317 157.009L162.5 58.5254L64.6826 157.009C64.6382 157.054 64.5937 157.098 64.543 157.143V214.779C64.543 217.236 62.5562 219.223 60.0996 219.223Z" fill="#434343"/>
</svg>
