<svg width="180" height="180" viewBox="0 0 180 180" fill="none" xmlns="http://www.w3.org/2000/svg">
<path d="M75.913 94.3278C75.2591 94.3278 74.6333 94.0676 74.1728 93.6071L66.0306 85.4649C65.0708 84.5051 65.0708 82.9442 66.0306 81.9844L67.799 80.216L66.906 76.0992C66.7302 75.2801 66.9798 74.4293 67.5705 73.8387L71.3884 70.0207C72.3482 69.061 73.9091 69.061 74.8689 70.0207L89.6134 84.7653C90.074 85.2258 90.3341 85.8516 90.3341 86.5055C90.3341 87.1594 90.074 87.7852 89.6134 88.2457L85.7955 92.0637C85.2048 92.6543 84.3505 92.9075 83.5349 92.7282L79.4181 91.8352L77.6498 93.6035C77.1927 94.0676 76.5669 94.3278 75.913 94.3278ZM71.2513 83.7246L75.913 88.3864L76.8904 87.409C77.481 86.8184 78.3353 86.5653 79.1509 86.7446L83.2677 87.6375L84.3962 86.509L73.1322 75.2449L72.0037 76.3735L72.8966 80.4903C73.0724 81.3094 72.8228 82.1602 72.2322 82.7508L71.2513 83.7246Z" fill="#434343"/>
<path d="M45.8192 114.5C45.7278 114.5 45.6399 114.497 45.5485 114.486C44.8067 114.405 44.1423 113.991 43.7415 113.358C39.5579 106.759 40.5353 97.9523 46.0724 92.4187L53.7189 84.9621C53.7294 84.9516 53.7435 84.9375 53.754 84.927L59.822 79.2457L61.636 77.509C62.6028 76.5844 64.1321 76.5984 65.0778 77.5441L82.4204 94.8867C82.888 95.3543 83.1482 95.9906 83.1411 96.6516C83.1341 97.3125 82.8599 97.9453 82.3817 98.4023L66.8567 113.273C65.8899 114.202 64.3607 114.184 63.415 113.238L55.7579 105.581L47.563 113.776C47.0954 114.244 46.4661 114.5 45.8192 114.5ZM55.7544 99.6434C56.3837 99.6434 57.013 99.8824 57.4946 100.364L65.1903 108.06L77.161 96.5918L63.2989 82.7297L63.2146 82.8105C63.2075 82.8176 63.2005 82.8246 63.1935 82.8281L57.136 88.5023L49.5317 95.9203C46.4028 99.0492 45.3376 103.686 46.5716 107.81L54.0177 100.364C54.4923 99.8859 55.1251 99.6434 55.7544 99.6434Z" fill="#434343"/>
<path d="M113.945 161.761C110.24 161.761 106.749 159.961 104.6 156.948L75.9833 118.041C75.1782 116.947 75.4138 115.404 76.5071 114.599C77.6005 113.794 79.1438 114.029 79.9489 115.123L108.58 154.044C108.587 154.055 108.598 154.065 108.605 154.079C109.849 155.83 111.793 156.836 113.945 156.836C115.689 156.836 117.327 156.154 118.565 154.92C119.802 153.686 120.481 152.04 120.481 150.293C120.481 148.546 119.799 146.904 118.565 145.666L81.2216 108.327L76.1134 113.435C75.1536 114.395 73.5927 114.395 72.6329 113.435C71.6731 112.475 71.6731 110.915 72.6329 109.955L79.4813 103.106C80.4411 102.147 82.002 102.147 82.9618 103.106L122.042 142.186C124.207 144.352 125.399 147.231 125.399 150.293C125.399 153.355 124.207 156.234 122.042 158.4C119.879 160.566 117.004 161.761 113.945 161.761Z" fill="#434343"/>
<path d="M69.2439 161.761C66.3892 161.761 63.6329 160.625 61.6044 158.597C57.3962 154.389 57.3962 147.54 61.6044 143.332L77.7798 127.157C78.7396 126.197 80.3005 126.197 81.2603 127.157C82.22 128.116 82.22 129.677 81.2603 130.637L65.0849 146.813C62.7962 149.105 62.7962 152.831 65.0849 155.12C66.2837 156.319 67.8692 156.927 69.5603 156.836C71.2478 156.744 72.763 155.967 73.8212 154.645L88.9946 135.735L81.8614 126.035C81.0564 124.942 81.2919 123.398 82.3853 122.593C83.4821 121.788 85.022 122.024 85.8271 123.117L94.0817 134.339C94.7427 135.236 94.7181 136.466 94.0185 137.338L77.6638 157.725C75.7478 160.116 72.8931 161.582 69.8345 161.75C69.6341 161.754 69.4372 161.761 69.2439 161.761Z" fill="#434343"/>
<path d="M101.032 127.118C100.403 127.118 99.7736 126.879 99.2919 126.397L90.6576 117.763C89.6978 116.803 89.6978 115.242 90.6576 114.282L101.373 103.563L98.6591 93.4348C98.4306 92.584 98.6732 91.6805 99.2955 91.0582L112.244 78.1102C112.866 77.4879 113.773 77.2453 114.62 77.4738L123.863 79.9523C124.713 80.1809 125.374 80.8453 125.603 81.6926C125.831 82.5434 125.589 83.4469 124.967 84.0691L115.531 93.5051L117.056 99.2039L122.755 100.73L132.191 91.2938C132.813 90.6715 133.72 90.4289 134.568 90.6574C135.419 90.8859 136.079 91.5469 136.308 92.3977L138.786 101.64C139.015 102.491 138.772 103.395 138.15 104.017L125.202 116.965C124.58 117.587 123.673 117.83 122.826 117.601L112.145 114.739L106.661 121.577C105.81 122.636 104.26 122.808 103.201 121.957C102.14 121.106 101.971 119.556 102.822 118.498L109.311 110.408C109.923 109.645 110.925 109.318 111.867 109.571L122.727 112.482L133.664 101.545L132.659 97.7906L125.234 105.216C124.611 105.838 123.708 106.08 122.857 105.852L114.413 103.591C113.562 103.363 112.901 102.698 112.672 101.851L110.412 93.4066C110.183 92.5559 110.426 91.6523 111.048 91.0301L118.473 83.6051L114.719 82.5996L103.781 93.5367L106.495 103.665C106.724 104.516 106.481 105.42 105.859 106.042L95.8783 116.026L102.772 122.92C103.732 123.88 103.732 125.441 102.772 126.401C102.291 126.875 101.661 127.118 101.032 127.118Z" fill="#434343"/>
<path d="M172.793 87.6867H145.923C145.269 87.6867 144.64 87.4266 144.176 86.959L90 32.4141L35.8242 86.959C35.3637 87.4231 34.7344 87.6867 34.077 87.6867H7.20703C6.21211 87.6867 5.31563 87.0891 4.93594 86.1715C4.55273 85.2539 4.76016 84.1957 5.46328 83.4926L73.0898 15.3914C73.5504 14.9273 74.1797 14.6637 74.8371 14.6637H105.163C105.817 14.6637 106.446 14.9238 106.91 15.3914L116.216 24.7641C117.172 25.7273 117.169 27.2848 116.205 28.2445C115.242 29.2008 113.681 29.1973 112.725 28.234L104.14 19.5891H75.8602L13.1203 82.7648H33.0539L88.2527 27.1863C88.7133 26.7223 89.3426 26.4586 90 26.4586C90.6574 26.4586 91.2832 26.7187 91.7473 27.1863L146.946 82.7648H166.88L126.454 42.0574C125.497 41.0941 125.501 39.5332 126.464 38.577C127.427 37.6207 128.988 37.6242 129.945 38.5875L174.537 83.4891C175.236 84.1957 175.444 85.2504 175.064 86.168C174.684 87.0891 173.788 87.6867 172.793 87.6867Z" fill="#434343"/>
<path d="M122.143 36.7277C121.518 36.7277 120.888 36.4887 120.41 36.0141C119.447 35.0578 119.44 33.4969 120.396 32.5336L120.445 32.4844C121.402 31.5211 122.963 31.5141 123.926 32.4703C124.889 33.4266 124.896 34.9875 123.94 35.9508L123.891 36C123.409 36.4852 122.776 36.7277 122.143 36.7277Z" fill="#434343"/>
<path d="M33.2859 132.247C32.639 132.247 32.0062 131.984 31.5457 131.527C31.4332 131.414 31.3312 131.287 31.2398 131.154C31.1519 131.02 31.0746 130.876 31.0148 130.729C30.9515 130.577 30.9058 130.423 30.8742 130.268C30.8425 130.11 30.825 129.945 30.825 129.786C30.825 129.625 30.8425 129.463 30.8742 129.305C30.9058 129.15 30.9515 128.992 31.0148 128.844C31.0746 128.696 31.1519 128.552 31.2398 128.419C31.3312 128.285 31.4332 128.159 31.5457 128.046C31.6617 127.934 31.7847 127.832 31.9218 127.74C32.0554 127.652 32.196 127.575 32.3472 127.515C32.4949 127.452 32.6496 127.406 32.8078 127.375C33.1242 127.311 33.4511 127.308 33.7675 127.375C33.9257 127.406 34.0804 127.452 34.2281 127.515C34.3757 127.575 34.5199 127.652 34.6535 127.74C34.7871 127.832 34.9136 127.934 35.0261 128.046C35.1421 128.159 35.2441 128.285 35.332 128.419C35.4234 128.552 35.4972 128.696 35.5605 128.844C35.6203 128.992 35.6695 129.15 35.7011 129.305C35.7328 129.463 35.7468 129.625 35.7468 129.786C35.7468 129.945 35.7328 130.11 35.7011 130.268C35.6695 130.423 35.6203 130.577 35.5605 130.729C35.4972 130.876 35.4234 131.02 35.332 131.154C35.2441 131.287 35.1421 131.414 35.0261 131.527C34.9136 131.639 34.7871 131.741 34.6535 131.832C34.5199 131.92 34.3757 131.998 34.2281 132.057C34.0804 132.121 33.9257 132.166 33.7675 132.198C33.6093 132.23 33.4476 132.247 33.2859 132.247Z" fill="#434343"/>
<path d="M146.714 175.254H33.2859C31.9253 175.254 30.825 174.154 30.825 172.793V140.618C30.825 139.257 31.9253 138.157 33.2859 138.157C34.6464 138.157 35.7468 139.257 35.7468 140.618V170.332H144.25V106.39C144.25 105.029 145.35 103.929 146.711 103.929C148.071 103.929 149.171 105.029 149.171 106.39V172.793C149.175 174.154 148.071 175.254 146.714 175.254Z" fill="#434343"/>
<path d="M33.2859 121.416C31.9253 121.416 30.825 120.315 30.825 118.955V85.2258C30.825 83.9496 31.7953 82.8984 33.0398 82.7754L88.2527 27.1863C88.7132 26.7223 89.3425 26.4586 90 26.4586C90.6574 26.4586 91.2832 26.7187 91.7472 27.1863L146.96 82.7754C148.205 82.8984 149.175 83.9461 149.175 85.2258C149.175 86.5863 148.075 87.6867 146.714 87.6867H145.923C145.269 87.6867 144.64 87.4266 144.176 86.959L90 32.4141L35.8242 86.959C35.7996 86.9836 35.775 87.0082 35.7468 87.0328V118.955C35.7468 120.315 34.6464 121.416 33.2859 121.416Z" fill="#434343"/>
</svg>
