<svg width="512" height="512" viewBox="0 0 512 512" fill="none" xmlns="http://www.w3.org/2000/svg">
<path d="M361.94 147.56H329.98C326.11 147.56 322.98 144.43 322.98 140.56C322.98 136.69 326.11 133.56 329.98 133.56H354.94V61.86C354.94 57.5 351.39 53.95 347.03 53.95H164.97C160.61 53.95 157.06 57.5 157.06 61.86V133.56H175.02V78.91C175.02 75.04 178.15 71.91 182.02 71.91H329.98C333.85 71.91 336.98 75.04 336.98 78.91V111.87C336.98 115.74 333.85 118.87 329.98 118.87C326.11 118.87 322.98 115.74 322.98 111.87V85.91H189.02V140.56C189.02 144.43 185.89 147.56 182.02 147.56H150.06C146.19 147.56 143.06 144.43 143.06 140.56V61.86C143.06 49.78 152.89 39.95 164.97 39.95H347.03C359.11 39.95 368.94 49.78 368.94 61.86V140.56C368.94 144.42 365.81 147.56 361.94 147.56Z" fill="#9381FF"/>
<path d="M460.02 233.25H396.64C392.77 233.25 389.64 230.12 389.64 226.25V193.03H303.65V226.25C303.65 230.12 300.52 233.25 296.65 233.25H215.35C211.48 233.25 208.35 230.12 208.35 226.25V193.03H122.36V226.25C122.36 230.12 119.23 233.25 115.36 233.25H51.9798C49.5898 233.25 47.3598 232.03 46.0798 230.01C44.7898 227.99 44.6298 225.46 45.6398 223.29L85.5898 137.61C86.7398 135.14 89.2098 133.57 91.9298 133.57H420.05C422.77 133.57 425.24 135.15 426.39 137.61L438.98 164.6C440.61 168.1 439.1 172.27 435.59 173.9C432.09 175.53 427.92 174.02 426.29 170.51L415.59 147.56H96.3998L62.9698 219.24H108.36V186.02C108.36 182.15 111.49 179.02 115.36 179.02H215.35C219.22 179.02 222.35 182.15 222.35 186.02V219.24H289.65V186.02C289.65 182.15 292.78 179.02 296.65 179.02H396.64C400.51 179.02 403.64 182.15 403.64 186.02V219.24H449.03L444.58 209.7C442.95 206.2 444.46 202.03 447.97 200.4C451.47 198.77 455.64 200.28 457.27 203.79L466.36 223.29C467.37 225.46 467.2 227.99 465.92 230.01C464.63 232.02 462.41 233.25 460.02 233.25Z" fill="#434343"/>
<path d="M441.26 193.03C439.42 193.03 437.62 192.28 436.31 190.98C435.99 190.66 435.7 190.3 435.44 189.91C435.19 189.54 434.98 189.13 434.8 188.71C434.62 188.28 434.49 187.84 434.4 187.4C434.31 186.95 434.26 186.49 434.26 186.03C434.26 185.57 434.31 185.11 434.4 184.66C434.49 184.21 434.62 183.77 434.8 183.35C434.98 182.93 435.19 182.52 435.44 182.14C435.7 181.76 435.99 181.4 436.31 181.08C437.62 179.78 439.42 179.03 441.26 179.03C443.11 179.03 444.91 179.78 446.21 181.08C446.54 181.4 446.83 181.76 447.08 182.14C447.33 182.52 447.55 182.93 447.73 183.35C447.9 183.77 448.04 184.21 448.13 184.66C448.22 185.11 448.26 185.57 448.26 186.03C448.26 186.49 448.22 186.95 448.13 187.4C448.04 187.84 447.9 188.28 447.73 188.71C447.55 189.13 447.33 189.54 447.08 189.91C446.83 190.3 446.54 190.66 446.21 190.98C444.91 192.28 443.11 193.03 441.26 193.03Z" fill="#434343"/>
<path d="M115.36 277.95H19.9199C16.0499 277.95 12.9199 274.82 12.9199 270.95V226.25C12.9199 222.38 16.0499 219.25 19.9199 219.25H115.36C119.23 219.25 122.36 222.38 122.36 226.25V270.95C122.36 274.82 119.23 277.95 115.36 277.95ZM26.9199 263.95H108.36V233.25H26.9199V263.95Z" fill="#434343"/>
<path d="M296.65 277.95H215.35C211.48 277.95 208.35 274.82 208.35 270.95V226.25C208.35 222.38 211.48 219.25 215.35 219.25H296.65C300.52 219.25 303.65 222.38 303.65 226.25V270.95C303.65 274.82 300.52 277.95 296.65 277.95ZM222.35 263.95H289.65V233.25H222.35V263.95Z" fill="#434343"/>
<path d="M492.08 277.95H396.64C392.77 277.95 389.64 274.82 389.64 270.95V226.25C389.64 222.38 392.77 219.25 396.64 219.25H492.08C495.95 219.25 499.08 222.38 499.08 226.25V270.95C499.08 274.82 495.95 277.95 492.08 277.95ZM403.64 263.95H485.08V233.25H403.64V263.95Z" fill="#434343"/>
<path d="M460.02 472.06H51.98C48.11 472.06 44.98 468.93 44.98 465.06V307.27C44.98 303.4 48.11 300.27 51.98 300.27C55.85 300.27 58.98 303.4 58.98 307.27V458.06H453.01V277.95H403.63V311.17C403.63 315.04 400.5 318.17 396.63 318.17H296.64C292.77 318.17 289.64 315.04 289.64 311.17V277.95H222.34V311.17C222.34 315.04 219.21 318.17 215.34 318.17H115.35C111.48 318.17 108.35 315.04 108.35 311.17V277.95H51.98C48.11 277.95 44.98 274.82 44.98 270.95C44.98 267.08 48.11 263.95 51.98 263.95H115.36C119.23 263.95 122.36 267.08 122.36 270.95V304.17H208.35V270.95C208.35 267.08 211.48 263.95 215.35 263.95H296.65C300.52 263.95 303.65 267.08 303.65 270.95V304.17H389.64V270.95C389.64 267.08 392.77 263.95 396.64 263.95H460.02C463.89 263.95 467.02 267.08 467.02 270.95V465.06C467.02 468.92 463.88 472.06 460.02 472.06Z" fill="#434343"/>
<path d="M192.62 193.03H138.09C134.22 193.03 131.09 189.9 131.09 186.03V140.56C131.09 136.69 134.22 133.56 138.09 133.56H192.62C196.49 133.56 199.62 136.69 199.62 140.56V186.03C199.62 189.9 196.49 193.03 192.62 193.03ZM145.09 179.03H185.62V147.56H145.09V179.03Z" fill="#434343"/>
<path d="M192.62 472.06H138.09C134.22 472.06 131.09 468.93 131.09 465.06V311.17C131.09 307.3 134.22 304.17 138.09 304.17H192.62C196.49 304.17 199.62 307.3 199.62 311.17V465.06C199.62 468.92 196.49 472.06 192.62 472.06ZM145.09 458.06H185.62V318.17H145.09V458.06Z" fill="#434343"/>
<path d="M215.35 318.17H115.36C111.49 318.17 108.36 315.04 108.36 311.17V186.03C108.36 182.16 111.49 179.03 115.36 179.03H215.35C219.22 179.03 222.35 182.16 222.35 186.03V311.17C222.35 315.03 219.22 318.17 215.35 318.17ZM122.36 304.17H208.35V193.03H122.36V304.17Z" fill="#9381FF"/>
<path d="M373.91 193.03H319.38C315.51 193.03 312.38 189.9 312.38 186.03V140.56C312.38 136.69 315.51 133.56 319.38 133.56H373.91C377.78 133.56 380.91 136.69 380.91 140.56V186.03C380.91 189.9 377.78 193.03 373.91 193.03ZM326.38 179.03H366.91V147.56H326.38V179.03Z" fill="#434343"/>
<path d="M373.91 472.06H319.38C315.51 472.06 312.38 468.93 312.38 465.06V311.17C312.38 307.3 315.51 304.17 319.38 304.17H373.91C377.78 304.17 380.91 307.3 380.91 311.17V364.13C380.91 368 377.78 371.13 373.91 371.13C370.04 371.13 366.91 368 366.91 364.13V318.17H326.38V458.06H366.91V409.06C366.91 405.19 370.04 402.06 373.91 402.06C377.78 402.06 380.91 405.19 380.91 409.06V465.06C380.91 468.92 377.78 472.06 373.91 472.06Z" fill="#434343"/>
<path d="M373.91 395.11C372.07 395.11 370.27 394.36 368.96 393.06C368.64 392.74 368.34 392.38 368.09 392C367.84 391.62 367.62 391.21 367.45 390.79C367.27 390.36 367.14 389.92 367.05 389.48C366.96 389.03 366.91 388.57 366.91 388.11C366.91 387.65 366.96 387.19 367.05 386.74C367.14 386.3 367.27 385.86 367.45 385.43C367.62 385.01 367.84 384.6 368.09 384.22C368.34 383.84 368.64 383.48 368.96 383.16C369.28 382.84 369.64 382.55 370.02 382.29C370.4 382.04 370.81 381.82 371.23 381.65C371.66 381.47 372.1 381.34 372.54 381.25C373.45 381.06 374.37 381.06 375.28 381.25C375.72 381.34 376.17 381.47 376.59 381.65C377.01 381.82 377.42 382.04 377.8 382.29C378.18 382.55 378.54 382.84 378.86 383.16C379.18 383.48 379.48 383.84 379.73 384.22C379.98 384.6 380.2 385.01 380.37 385.43C380.55 385.86 380.68 386.3 380.77 386.74C380.86 387.19 380.91 387.65 380.91 388.11C380.91 388.57 380.86 389.03 380.77 389.48C380.68 389.92 380.55 390.36 380.37 390.79C380.2 391.21 379.98 391.62 379.73 392C379.48 392.38 379.18 392.74 378.86 393.06C377.55 394.36 375.75 395.11 373.91 395.11Z" fill="#434343"/>
<path d="M396.64 318.17H296.65C292.78 318.17 289.65 315.04 289.65 311.17V186.03C289.65 182.16 292.78 179.03 296.65 179.03H396.64C400.51 179.03 403.64 182.16 403.64 186.03V311.17C403.64 315.03 400.5 318.17 396.64 318.17ZM303.65 304.17H389.64V193.03H303.65V304.17Z" fill="#9381FF"/>
</svg>
