<svg width="512" height="512" viewBox="0 0 512 512" fill="none" xmlns="http://www.w3.org/2000/svg">
<path d="M167.68 498.5C167.22 498.5 166.76 498.45 166.31 498.36C165.87 498.27 165.43 498.14 165 497.96C164.58 497.79 164.17 497.57 163.8 497.32C163.41 497.06 163.05 496.77 162.73 496.45C161.43 495.15 160.68 493.34 160.68 491.5C160.68 491.04 160.73 490.58 160.82 490.13C160.91 489.69 161.04 489.25 161.22 488.82C161.39 488.4 161.61 487.99 161.86 487.61C162.12 487.23 162.41 486.87 162.73 486.55C163.05 486.23 163.41 485.93 163.79 485.68C164.17 485.43 164.58 485.21 165 485.04C165.42 484.86 165.87 484.73 166.31 484.64C167.21 484.46 168.15 484.46 169.05 484.64C169.5 484.73 169.94 484.86 170.36 485.04C170.78 485.21 171.19 485.43 171.57 485.68C171.95 485.93 172.31 486.23 172.63 486.55C172.95 486.87 173.25 487.23 173.5 487.61C173.75 487.99 173.97 488.4 174.14 488.82C174.32 489.25 174.45 489.69 174.54 490.13C174.63 490.58 174.68 491.04 174.68 491.5C174.68 493.34 173.93 495.15 172.63 496.45C172.31 496.77 171.95 497.06 171.57 497.32C171.19 497.57 170.78 497.79 170.36 497.96C169.94 498.14 169.5 498.27 169.05 498.36C168.6 498.45 168.14 498.5 167.68 498.5Z" fill="#434343"/>
<path d="M455.31 194.77H433.14C429.27 194.77 426.14 191.64 426.14 187.77C426.14 183.9 429.27 180.77 433.14 180.77H455.31C459.18 180.77 462.31 183.9 462.31 187.77C462.31 191.64 459.18 194.77 455.31 194.77Z" fill="#E6AF2E"/>
<path d="M455.31 246.02H433.14C429.27 246.02 426.14 242.89 426.14 239.02C426.14 235.15 429.27 232.02 433.14 232.02H455.31C459.18 232.02 462.31 235.15 462.31 239.02C462.31 242.89 459.18 246.02 455.31 246.02Z" fill="#E6AF2E"/>
<path d="M455.31 297.27H433.14C429.27 297.27 426.14 294.14 426.14 290.27C426.14 286.4 429.27 283.27 433.14 283.27H455.31C459.18 283.27 462.31 286.4 462.31 290.27C462.31 294.14 459.18 297.27 455.31 297.27Z" fill="#E6AF2E"/>
<path d="M455.31 348.51H433.14C429.27 348.51 426.14 345.38 426.14 341.51C426.14 337.64 429.27 334.51 433.14 334.51H455.31C459.18 334.51 462.31 337.64 462.31 341.51C462.31 345.38 459.18 348.51 455.31 348.51Z" fill="#E6AF2E"/>
<path d="M455.31 399.76H433.14C429.27 399.76 426.14 396.63 426.14 392.76C426.14 388.89 429.27 385.76 433.14 385.76H455.31C459.18 385.76 462.31 388.89 462.31 392.76C462.31 396.63 459.18 399.76 455.31 399.76Z" fill="#E6AF2E"/>
<path d="M455.31 451.01H433.14C429.27 451.01 426.14 447.88 426.14 444.01C426.14 440.14 429.27 437.01 433.14 437.01H455.31C459.18 437.01 462.31 440.14 462.31 444.01C462.31 447.88 459.18 451.01 455.31 451.01Z" fill="#E6AF2E"/>
<path d="M379.08 422.27C375.21 422.27 372.08 419.14 372.08 415.27V305L268.82 408.27H343.47C347.34 408.27 350.47 411.4 350.47 415.27C350.47 419.14 347.34 422.27 343.47 422.27H251.92C249.09 422.27 246.54 420.56 245.45 417.95C244.37 415.33 244.97 412.32 246.97 410.32L374.13 283.16C376.13 281.16 379.14 280.56 381.76 281.64C384.38 282.72 386.08 285.28 386.08 288.11V415.27C386.08 419.13 382.95 422.27 379.08 422.27Z" fill="#E6AF2E"/>
<path d="M455.31 498.5H190.53C186.66 498.5 183.53 495.37 183.53 491.5C183.53 487.63 186.66 484.5 190.53 484.5H448.31V120.96L84.78 484.5H143.68C147.55 484.5 150.68 487.63 150.68 491.5C150.68 495.37 147.55 498.5 143.68 498.5H67.88C65.05 498.5 62.5 496.79 61.41 494.18C60.33 491.56 60.93 488.55 62.93 486.55L450.36 99.12C452.36 97.12 455.37 96.52 457.99 97.6C460.61 98.68 462.31 101.24 462.31 104.07V491.5C462.31 495.37 459.18 498.5 455.31 498.5Z" fill="#434343"/>
<path d="M382.03 109.62C380.54 109.62 379.04 109.15 377.78 108.18C375.14 106.16 374.3 102.58 375.7 99.62C376.56 97.54 378.37 95.99 380.57 95.48C382.93 94.93 385.41 95.63 387.12 97.35L387.21 97.44C389.94 100.17 389.94 104.61 387.21 107.34L386.98 107.57C385.62 108.93 383.83 109.62 382.03 109.62Z" fill="#434343"/>
<path d="M101.15 381.36C93.7101 381.36 86.2801 378.53 80.6201 372.87L58.8001 351.05C47.4801 339.73 47.4801 321.31 58.8001 309.99L78.2401 290.55C80.9701 287.82 85.4101 287.82 88.1401 290.55C90.8701 293.28 90.8701 297.72 88.1401 300.45L68.7001 319.89C62.8401 325.75 62.8401 335.29 68.7001 341.15L90.5201 362.97C96.3801 368.83 105.92 368.83 111.78 362.97L360.41 114.34C356.75 113.08 353.33 110.99 350.44 108.11C345.36 103.03 342.59 96.01 342.84 88.83C335.67 89.08 328.65 86.31 323.56 81.23C320.67 78.34 318.58 74.92 317.32 71.26L107.8 280.79C105.07 283.52 100.63 283.52 97.9001 280.79C95.1701 278.06 95.1701 273.62 97.9001 270.89L320.75 48.04C323.26 45.53 327.24 45.3 330.02 47.49C332.81 49.68 333.52 53.61 331.67 56.63C328.79 61.36 329.53 67.41 333.46 71.34C335.86 73.74 339.05 75 342.44 74.85C346.28 74.69 350.04 76.16 352.77 78.89C355.51 81.62 356.99 85.39 356.83 89.24C356.69 92.64 357.93 95.82 360.34 98.23C364.26 102.15 370.3 102.89 375.03 100.03C378.06 98.2 381.98 98.92 384.16 101.7C386.34 104.49 386.1 108.46 383.6 110.97L121.68 372.87C116.02 378.53 108.59 381.36 101.15 381.36Z" fill="#434343"/>
<path d="M109.68 328.99C107.89 328.99 106.1 328.31 104.73 326.94C102 324.21 102 319.77 104.73 317.04L303.93 117.84C306.66 115.11 311.1 115.11 313.83 117.84C316.56 120.57 316.56 125.01 313.83 127.74L114.63 326.94C113.27 328.3 111.48 328.99 109.68 328.99Z" fill="#434343"/>
<path d="M325.54 113.13C325.09 113.13 324.63 113.08 324.18 112.99C323.73 112.9 323.29 112.77 322.87 112.59C322.44 112.42 322.04 112.2 321.66 111.95C321.27 111.69 320.92 111.4 320.59 111.08C319.29 109.77 318.54 107.97 318.54 106.13C318.54 105.67 318.59 105.21 318.68 104.76C318.77 104.31 318.91 103.87 319.08 103.45C319.25 103.03 319.47 102.62 319.72 102.24C319.98 101.86 320.27 101.5 320.59 101.18C320.92 100.86 321.27 100.56 321.66 100.31C322.04 100.06 322.44 99.84 322.87 99.67C323.29 99.49 323.73 99.36 324.18 99.27C326.45 98.81 328.87 99.55 330.49 101.18C330.82 101.5 331.11 101.86 331.36 102.24C331.62 102.62 331.83 103.03 332.01 103.45C332.18 103.87 332.32 104.31 332.41 104.76C332.5 105.21 332.54 105.67 332.54 106.13C332.54 107.97 331.8 109.77 330.49 111.08C329.19 112.38 327.39 113.13 325.54 113.13Z" fill="#434343"/>
<path d="M101.15 381.97C94.09 381.97 87.03 379.28 81.65 373.91L57.76 350.02C47.01 339.27 47.01 321.78 57.76 311.03L78.24 290.55C80.97 287.82 85.41 287.82 88.14 290.55L141.12 343.53C143.85 346.26 143.85 350.7 141.12 353.43L120.64 373.91C115.27 379.28 108.21 381.97 101.15 381.97ZM91.55 364C96.84 369.29 105.45 369.29 110.74 364L126.27 348.47L83.19 305.39L67.66 320.92C62.37 326.21 62.37 334.82 67.66 340.11L91.55 364Z" fill="#E6AF2E"/>
<path d="M368.81 115.74C362.09 115.74 355.46 113.13 350.44 108.11C345.36 103.03 342.59 96.01 342.84 88.83C335.66 89.07 328.65 86.31 323.56 81.23C315.05 72.72 313.47 59.61 319.71 49.34C320.07 48.75 320.44 48.21 320.82 47.67C322.13 45.84 323.88 44.37 325.9 43.37C326.18 43.23 326.47 43.1 326.76 42.99C327.55 42.66 328.37 42.4 329.23 42.23L408.81 13.91C411.35 13 414.2 13.64 416.11 15.56C418.02 17.48 418.66 20.31 417.76 22.86L389.42 102.47C389.25 103.29 389 104.09 388.69 104.85C388.56 105.19 388.42 105.52 388.25 105.83C387.27 107.8 385.83 109.52 384.08 110.8C383.5 111.21 382.95 111.58 382.34 111.96C378.12 114.5 373.45 115.74 368.81 115.74ZM343.01 74.83C346.64 74.83 350.18 76.29 352.77 78.88C355.51 81.61 356.99 85.38 356.83 89.23C356.69 92.63 357.93 95.81 360.34 98.22C364.26 102.14 370.3 102.88 375.03 100.02C375.23 99.89 375.48 99.73 375.74 99.56C375.81 99.13 375.91 98.7 376.06 98.29L399.64 32.05L333.39 55.63C332.98 55.78 332.56 55.88 332.13 55.95C331.97 56.18 331.81 56.42 331.66 56.67C328.8 61.37 329.53 67.42 333.46 71.35C335.86 73.75 339.06 75 342.44 74.86C342.63 74.83 342.82 74.83 343.01 74.83Z" fill="#E6AF2E"/>
<path d="M396.63 68.35C394.84 68.35 393.05 67.67 391.68 66.3L365.37 39.99C362.64 37.26 362.64 32.82 365.37 30.09C368.1 27.36 372.54 27.36 375.27 30.09L401.58 56.4C404.31 59.13 404.31 63.57 401.58 66.3C400.21 67.67 398.42 68.35 396.63 68.35Z" fill="#E6AF2E"/>
</svg>
