<svg width="160" height="160" viewBox="0 0 160 160" fill="none" xmlns="http://www.w3.org/2000/svg">
<path d="M52.4001 155.781C52.2564 155.781 52.1126 155.766 51.972 155.737C51.8345 155.709 51.697 155.669 51.5626 155.612C51.4314 155.559 51.3033 155.491 51.1876 155.412C51.0658 155.331 50.9533 155.241 50.8533 155.141C50.447 154.734 50.2126 154.169 50.2126 153.594C50.2126 153.45 50.2283 153.306 50.2564 153.166C50.2845 153.028 50.3251 152.891 50.3814 152.756C50.4345 152.625 50.5033 152.497 50.5814 152.378C50.6626 152.259 50.7533 152.147 50.8533 152.047C50.9533 151.947 51.0658 151.853 51.1845 151.775C51.3033 151.697 51.4314 151.628 51.5626 151.575C51.6939 151.519 51.8345 151.478 51.972 151.45C52.2533 151.394 52.547 151.394 52.8283 151.45C52.9689 151.478 53.1064 151.519 53.2376 151.575C53.3689 151.628 53.497 151.697 53.6158 151.775C53.7345 151.853 53.847 151.947 53.947 152.047C54.047 152.147 54.1408 152.259 54.2189 152.378C54.297 152.497 54.3658 152.625 54.4189 152.756C54.4751 152.891 54.5158 153.028 54.5439 153.166C54.572 153.306 54.5876 153.45 54.5876 153.594C54.5876 154.169 54.3533 154.734 53.947 155.141C53.847 155.241 53.7345 155.331 53.6158 155.412C53.497 155.491 53.3689 155.559 53.2376 155.612C53.1064 155.669 52.9689 155.709 52.8283 155.737C52.6876 155.766 52.5439 155.781 52.4001 155.781Z" fill="#434343"/>
<path d="M142.284 60.8656H135.356C134.147 60.8656 133.169 59.8875 133.169 58.6781C133.169 57.4687 134.147 56.4906 135.356 56.4906H142.284C143.494 56.4906 144.472 57.4687 144.472 58.6781C144.472 59.8875 143.494 60.8656 142.284 60.8656Z" fill="#434343"/>
<path d="M142.284 76.8812H135.356C134.147 76.8812 133.169 75.9031 133.169 74.6937C133.169 73.4844 134.147 72.5062 135.356 72.5062H142.284C143.494 72.5062 144.472 73.4844 144.472 74.6937C144.472 75.9031 143.494 76.8812 142.284 76.8812Z" fill="#434343"/>
<path d="M142.284 92.8969H135.356C134.147 92.8969 133.169 91.9187 133.169 90.7094C133.169 89.5 134.147 88.5219 135.356 88.5219H142.284C143.494 88.5219 144.472 89.5 144.472 90.7094C144.472 91.9187 143.494 92.8969 142.284 92.8969Z" fill="#434343"/>
<path d="M142.284 108.909H135.356C134.147 108.909 133.169 107.931 133.169 106.722C133.169 105.512 134.147 104.534 135.356 104.534H142.284C143.494 104.534 144.472 105.512 144.472 106.722C144.472 107.931 143.494 108.909 142.284 108.909Z" fill="#434343"/>
<path d="M142.284 124.925H135.356C134.147 124.925 133.169 123.947 133.169 122.737C133.169 121.528 134.147 120.55 135.356 120.55H142.284C143.494 120.55 144.472 121.528 144.472 122.737C144.472 123.947 143.494 124.925 142.284 124.925Z" fill="#434343"/>
<path d="M142.284 140.941H135.356C134.147 140.941 133.169 139.962 133.169 138.753C133.169 137.544 134.147 136.566 135.356 136.566H142.284C143.494 136.566 144.472 137.544 144.472 138.753C144.472 139.962 143.494 140.941 142.284 140.941Z" fill="#434343"/>
<path d="M118.462 131.959C117.253 131.959 116.275 130.981 116.275 129.772V95.3125L84.0062 127.584H107.334C108.544 127.584 109.522 128.562 109.522 129.772C109.522 130.981 108.544 131.959 107.334 131.959H78.725C77.8406 131.959 77.0437 131.425 76.7031 130.609C76.3656 129.791 76.5531 128.85 77.1781 128.225L116.916 88.4875C117.541 87.8625 118.481 87.675 119.3 88.0125C120.119 88.35 120.65 89.15 120.65 90.0344V129.772C120.65 130.978 119.672 131.959 118.462 131.959Z" fill="#434343"/>
<path d="M142.284 155.781H59.5407C58.3313 155.781 57.3532 154.803 57.3532 153.594C57.3532 152.384 58.3313 151.406 59.5407 151.406H140.097V37.8L26.4938 151.406H44.9C46.1094 151.406 47.0875 152.384 47.0875 153.594C47.0875 154.803 46.1094 155.781 44.9 155.781H21.2125C20.3282 155.781 19.5313 155.247 19.1907 154.431C18.8532 153.612 19.0407 152.672 19.6657 152.047L140.738 30.975C141.363 30.35 142.303 30.1625 143.122 30.5C143.941 30.8375 144.472 31.6375 144.472 32.5219V153.594C144.472 154.803 143.494 155.781 142.284 155.781Z" fill="#434343"/>
<path d="M119.384 34.2562C118.919 34.2562 118.45 34.1094 118.056 33.8062C117.231 33.175 116.969 32.0562 117.406 31.1312C117.675 30.4812 118.241 29.9969 118.928 29.8375C119.666 29.6656 120.441 29.8844 120.975 30.4219L121.003 30.45C121.856 31.3031 121.856 32.6906 121.003 33.5437L120.931 33.6156C120.506 34.0406 119.947 34.2562 119.384 34.2562Z" fill="#434343"/>
<path d="M31.6094 119.175C29.2844 119.175 26.9625 118.291 25.1938 116.522L18.375 109.703C14.8375 106.166 14.8375 100.409 18.375 96.8718L24.45 90.7968C25.3032 89.9437 26.6907 89.9437 27.5438 90.7968C28.3969 91.65 28.3969 93.0375 27.5438 93.8906L21.4688 99.9656C19.6375 101.797 19.6375 104.778 21.4688 106.609L28.2875 113.428C30.1188 115.259 33.1 115.259 34.9313 113.428L112.628 35.7312C111.484 35.3375 110.416 34.6843 109.513 33.7843C107.925 32.1968 107.059 30.0031 107.138 27.7593C104.897 27.8375 102.703 26.9718 101.113 25.3843C100.209 24.4812 99.5563 23.4125 99.1626 22.2687L33.6876 87.7468C32.8344 88.6 31.4469 88.6 30.5938 87.7468C29.7407 86.8937 29.7407 85.5062 30.5938 84.6531L100.234 15.0125C101.019 14.2281 102.263 14.1562 103.131 14.8406C104.003 15.525 104.225 16.7531 103.647 17.6968C102.747 19.175 102.978 21.0656 104.206 22.2937C104.956 23.0437 105.953 23.4375 107.013 23.3906C108.213 23.3406 109.388 23.8 110.241 24.6531C111.097 25.5062 111.559 26.6843 111.509 27.8875C111.466 28.95 111.853 29.9437 112.606 30.6968C113.831 31.9218 115.719 32.1531 117.197 31.2593C118.144 30.6875 119.369 30.9125 120.05 31.7812C120.731 32.6531 120.656 33.8937 119.875 34.6781L38.025 116.522C36.2563 118.291 33.9344 119.175 31.6094 119.175Z" fill="#434343"/>
<path d="M34.2751 102.809C33.7157 102.809 33.1563 102.597 32.7282 102.169C31.8751 101.316 31.8751 99.9281 32.7282 99.075L94.9782 36.825C95.8313 35.9718 97.2188 35.9718 98.072 36.825C98.9251 37.6781 98.9251 39.0656 98.072 39.9187L35.822 102.169C35.397 102.594 34.8376 102.809 34.2751 102.809Z" fill="#434343"/>
<path d="M101.731 35.3531C101.591 35.3531 101.447 35.3375 101.306 35.3093C101.166 35.2812 101.028 35.2406 100.897 35.1843C100.762 35.1312 100.637 35.0625 100.519 34.9843C100.397 34.9031 100.287 34.8125 100.184 34.7125C99.7781 34.3031 99.5437 33.7406 99.5437 33.1656C99.5437 33.0218 99.5593 32.8781 99.5874 32.7375C99.6156 32.5968 99.6593 32.4593 99.7124 32.3281C99.7656 32.1968 99.8343 32.0687 99.9124 31.95C99.9937 31.8312 100.084 31.7187 100.184 31.6187C100.287 31.5187 100.397 31.425 100.519 31.3468C100.637 31.2687 100.762 31.2 100.897 31.1468C101.028 31.0906 101.166 31.05 101.306 31.0218C102.016 30.8781 102.772 31.1093 103.278 31.6187C103.381 31.7187 103.472 31.8312 103.55 31.95C103.631 32.0687 103.697 32.1968 103.753 32.3281C103.806 32.4593 103.85 32.5968 103.878 32.7375C103.906 32.8781 103.919 33.0218 103.919 33.1656C103.919 33.7406 103.687 34.3031 103.278 34.7125C102.872 35.1187 102.309 35.3531 101.731 35.3531Z" fill="#434343"/>
<path d="M31.6094 119.366C29.4032 119.366 27.1969 118.525 25.5157 116.847L18.05 109.381C14.6907 106.022 14.6907 100.556 18.05 97.1968L24.45 90.7968C25.3032 89.9437 26.6907 89.9437 27.5438 90.7968L44.1 107.353C44.9532 108.206 44.9532 109.594 44.1 110.447L37.7001 116.847C36.0219 118.525 33.8157 119.366 31.6094 119.366ZM28.6094 113.75C30.2626 115.403 32.9532 115.403 34.6063 113.75L39.4594 108.897L25.9969 95.4343L21.1438 100.287C19.4907 101.941 19.4907 104.631 21.1438 106.284L28.6094 113.75Z" fill="#434343"/>
<path d="M115.253 36.1687C113.153 36.1687 111.081 35.3531 109.513 33.7844C107.925 32.1969 107.059 30.0031 107.138 27.7594C104.894 27.8344 102.703 26.9719 101.113 25.3844C98.4532 22.725 97.9594 18.6281 99.9094 15.4187C100.022 15.2344 100.138 15.0656 100.256 14.8969C100.666 14.325 101.213 13.8656 101.844 13.5531C101.931 13.5094 102.022 13.4687 102.113 13.4344C102.359 13.3312 102.616 13.25 102.884 13.1969L127.753 4.34686C128.547 4.06248 129.438 4.26248 130.034 4.86248C130.631 5.46248 130.831 6.34686 130.55 7.14373L121.694 32.0219C121.641 32.2781 121.563 32.5281 121.466 32.7656C121.425 32.8719 121.381 32.975 121.328 33.0719C121.022 33.6875 120.572 34.225 120.025 34.625C119.844 34.7531 119.672 34.8687 119.481 34.9875C118.163 35.7812 116.703 36.1687 115.253 36.1687ZM107.191 23.3844C108.325 23.3844 109.431 23.8406 110.241 24.65C111.097 25.5031 111.559 26.6812 111.509 27.8844C111.466 28.9469 111.853 29.9406 112.606 30.6937C113.831 31.9187 115.719 32.15 117.197 31.2562C117.259 31.2156 117.338 31.1656 117.419 31.1125C117.441 30.9781 117.472 30.8437 117.519 30.7156L124.888 10.0156L104.184 17.3844C104.056 17.4312 103.925 17.4625 103.791 17.4844C103.741 17.5562 103.691 17.6312 103.644 17.7094C102.75 19.1781 102.978 21.0687 104.206 22.2969C104.956 23.0469 105.956 23.4375 107.013 23.3937C107.072 23.3844 107.131 23.3844 107.191 23.3844Z" fill="#434343"/>
<path d="M123.947 21.3593C123.388 21.3593 122.828 21.1468 122.4 20.7187L114.178 12.4968C113.325 11.6437 113.325 10.2562 114.178 9.40309C115.031 8.54996 116.419 8.54996 117.272 9.40309L125.494 17.625C126.347 18.4781 126.347 19.8656 125.494 20.7187C125.066 21.1468 124.506 21.3593 123.947 21.3593Z" fill="#434343"/>
</svg>
