<svg width="200" height="200" viewBox="0 0 200 200" fill="none" xmlns="http://www.w3.org/2000/svg">
<g clip-path="url(#clip0_66_2)">
<path d="M147.99 114.923C147.6 114.736 133.019 107.556 130.428 106.623C129.371 106.244 128.238 105.873 127.032 105.873C125.064 105.873 123.41 106.854 122.121 108.781C120.665 110.946 116.256 116.1 114.893 117.64C114.715 117.843 114.473 118.086 114.327 118.086C114.197 118.086 111.94 117.156 111.257 116.86C95.6161 110.066 83.7441 93.7273 82.1161 90.9721C81.8837 90.576 81.8739 90.3961 81.872 90.3961C81.9291 90.1864 82.4551 89.6591 82.7265 89.387C83.5207 88.6013 84.3811 87.5656 85.2135 86.5636C85.6077 86.089 86.0025 85.6136 86.3902 85.1656C87.598 83.7604 88.1356 82.6695 88.759 81.4058L89.0856 80.7493C90.6077 77.7253 89.3077 75.1734 88.8876 74.3494C88.5428 73.6597 82.3863 58.8013 81.7317 57.2403C80.1577 53.4734 78.0778 51.7195 75.1876 51.7195C74.9194 51.7195 75.1876 51.7195 74.0629 51.7669C72.6934 51.8247 65.2356 52.8065 61.9382 54.8851C58.4415 57.0896 52.5259 64.1169 52.5259 76.4753C52.5259 87.5981 59.5843 98.1 62.6148 102.094C62.6902 102.195 62.8285 102.399 63.0291 102.693C74.635 119.642 89.1032 132.203 103.77 138.062C117.89 143.703 124.577 144.355 128.378 144.355H128.378C129.976 144.355 131.254 144.229 132.382 144.118L133.098 144.05C137.976 143.618 148.695 138.063 151.134 131.287C153.054 125.95 153.561 120.119 152.283 118.003C151.408 116.564 149.899 115.84 147.99 114.923Z" fill="#9381FF"/>
<path d="M101.775 0C47.6089 0 3.54141 43.7364 3.54141 97.4955C3.54141 114.883 8.19465 131.903 17.0096 146.799L0.137512 196.569C-0.176774 197.497 0.056992 198.523 0.743356 199.221C1.23881 199.727 1.91089 200 2.59725 200C2.86024 200 3.12517 199.96 3.38362 199.878L55.2797 183.387C69.481 190.975 85.5317 194.98 101.776 194.98C155.937 194.981 200 151.249 200 97.4955C200 43.7364 155.937 0 101.775 0ZM101.775 174.671C86.4901 174.671 71.6856 170.258 58.9596 161.907C58.5317 161.626 58.0349 161.482 57.5349 161.482C57.2706 161.482 57.0057 161.522 56.7479 161.604L30.7511 169.868L39.1434 145.108C39.4148 144.307 39.2791 143.423 38.7791 142.74C29.0882 129.499 23.9654 113.854 23.9654 97.4955C23.9654 54.9351 58.8706 20.3091 101.775 20.3091C144.673 20.3091 179.575 54.9351 179.575 97.4955C179.575 140.051 144.675 174.671 101.775 174.671Z" fill="#9381FF"/>
</g>
<defs>
<clipPath id="clip0_66_2">
<rect width="200" height="200" fill="white"/>
</clipPath>
</defs>
</svg>
