<svg width="226" height="226" viewBox="0 0 226 226" fill="none" xmlns="http://www.w3.org/2000/svg">
<g clip-path="url(#clip0_66_7)">
<path d="M113 0C50.5891 0 0 50.5891 0 113C0 175.411 50.5891 226 113 226C175.411 226 226 175.411 226 113C226 50.5891 175.411 0 113 0ZM113 208.344C60.3416 208.344 17.6562 165.658 17.6562 113C17.6562 60.3416 60.3416 17.6562 113 17.6562C165.658 17.6562 208.344 60.3416 208.344 113C208.344 165.658 165.658 208.344 113 208.344Z" fill="#434343"/>
<path d="M144.395 169.486C146.912 169.493 169.5 152.789 169.5 150.658C169.5 148.527 144.222 132.602 142.036 132.602C139.85 132.602 132.511 141.402 130.532 142.381C128.546 143.361 116.187 143.009 102.413 129.236C88.6331 115.469 83.9294 99.6135 83.9294 97.1235C83.9294 94.6335 95.4197 86.9438 95.737 85.1367C96.0544 83.3296 80.5911 56.5 78.0808 56.5C75.5705 56.5 56.5 79.6738 56.5 81.605C56.5 83.5361 58.2449 108.379 89.7021 139.829C121.159 171.279 141.878 169.473 144.395 169.486Z" fill="#434343"/>
</g>
<defs>
<clipPath id="clip0_66_7">
<rect width="226" height="226" fill="white"/>
</clipPath>
</defs>
</svg>
