<svg id="visual" viewBox="0 0 960 540" width="960" height="540" xmlns="http://www.w3.org/2000/svg" xmlns:xlink="http://www.w3.org/1999/xlink" version="1.1"><rect x="0" y="0" width="960" height="540" fill="#CECAC9"></rect><path d="M0 174L32 170.7C64 167.3 128 160.7 192 195.5C256 230.3 320 306.7 384 360.7C448 414.7 512 446.3 576 449.2C640 452 704 426 768 384.5C832 343 896 286 928 257.5L960 229L960 541L928 541C896 541 832 541 768 541C704 541 640 541 576 541C512 541 448 541 384 541C320 541 256 541 192 541C128 541 64 541 32 541L0 541Z" fill="#BF9041" stroke-linecap="round" stroke-linejoin="miter"></path></svg>